# xmcd CD database file
#
# Track frame offsets:
#	150
#	18730
#	36492
#	49720
#
# Disc length: 913 seconds
#
# Revision: 0
# Processed by: cddbd v1.5.1PL0 Copyright (c) Steve Scherf et al.
# Submitted via: CDex 1.51
#
DISCID=31038f04
DTITLE=政風会 - DUCK BOAT
DYEAR=1986
DGENRE=
TTITLE0=水門
TTITLE1=見晴らし台から
TTITLE2=夜警
TTITLE3=裸足のリタ
EXTD=YEAR: 1986
EXTT0=
EXTT1=
EXTT2=
EXTT3=
PLAYORDER=
